<svg width="660" height="330" style="background: #333">  
  <defs>  
    <clipPath id="ellipse">  
     <path x="0" y="0" width="660" height="330" d="M123.4,-188.3C165.7,-164.8,209.7,-140.4,224.8,-103.7C239.8,-67.1,225.8,-18.3,206.7,21.1C187.6,60.5,163.3,90.5,140.2,127C117.1,163.5,95.2,206.5,64.9,210.7C34.6,214.9,-4.099999999999998,180.4,-35.4,155.3C-66.6,130.2,-90.4,114.5,-125,96.2C-159.6,77.9,-205,57,-228.6,21C-252.2,-14.9,-253.9,-65.8,-238.4,-112.6C-222.8,-159.4,-190.1,-202.1,-147.5,-225.5C-104.9,-248.9,-52.4,-252.9,-5.900000000000001,-243.7C40.5,-234.4,81.1,-211.9,123.4,-188.3Z" fill="rgba(254, 132, 14, 1)" stroke="none" stroke-width="0"></path>
    </clipPath>  
  </defs>
 <image id="change" width="660" height="495" y="-100" xlink:href="http://www.vanseodesign.com/blog/wp-content/uploads/2013/09/strawberry-fields.jpg" clip-path="url(#ellipse)"/>  
</svg>